<?xml version="1.0" encoding="utf-8"?>
<!-- Generator: Adobe Illustrator 28.1.0, SVG Export Plug-In . SVG Version: 6.00 Build 0)  -->
<svg version="1.1" id="Layer_1" xmlns="http://www.w3.org/2000/svg" xmlns:xlink="http://www.w3.org/1999/xlink" x="0px" y="0px"
	 viewBox="0 0 24 24" style="enable-background:new 0 0 24 24;" xml:space="preserve">
<style type="text/css">
	.st0{fill:#FFFFFF;}
</style>
<path class="st0" d="M12,22c-1.2,0-2.4-0.2-3.5-0.7s-2-1.1-2.8-1.9c-0.8-0.8-1.5-1.8-1.9-2.8C3.2,15.4,3,14.2,3,13s0.2-2.4,0.7-3.5
	s1.1-2,1.9-2.9s1.8-1.5,2.8-1.9S10.8,4,12,4h0.2l-1.6-1.6L12,1l4,4l-4,4l-1.4-1.5L12.2,6H12c-1.9,0-3.6,0.7-5,2s-2,3-2,5
	s0.7,3.6,2,5s3,2,5,2s3.6-0.7,5-2s2-3,2-5h2c0,1.2-0.2,2.4-0.7,3.5c-0.5,1.1-1.1,2-1.9,2.8c-0.8,0.8-1.8,1.5-2.9,1.9S13.2,22,12,22z
	 M9.5,16v-1.5h3v-1h-3V10H14v1.5h-3v1h2c0.3,0,0.5,0.1,0.7,0.3c0.2,0.2,0.3,0.4,0.3,0.7V15c0,0.3-0.1,0.5-0.3,0.7
	C13.5,15.9,13.3,16,13,16H9.5z"/>
</svg>
