<?xml version="1.0" encoding="utf-8"?>
<!-- Generator: Adobe Illustrator 28.1.0, SVG Export Plug-In . SVG Version: 6.00 Build 0)  -->
<svg version="1.1" id="Layer_1" xmlns="http://www.w3.org/2000/svg" xmlns:xlink="http://www.w3.org/1999/xlink" x="0px" y="0px"
	 viewBox="0 0 24 24" style="enable-background:new 0 0 24 24;" xml:space="preserve">
<style type="text/css">
	.st0{fill:#FFFFFF;}
</style>
<path class="st0" d="M12,22c-1.2,0-2.4-0.2-3.5-0.7s-2-1.1-2.8-1.9c-0.8-0.8-1.5-1.8-1.9-2.8C3.2,15.4,3,14.2,3,13h2
	c0,1.9,0.7,3.6,2,5s3,2,5,2s3.6-0.7,5-2s2-3,2-5s-0.7-3.6-2-5s-3-2-5-2h-0.1l1.6,1.6L12,9L8,5l4-4l1.4,1.4L11.9,4H12
	c1.2,0,2.4,0.2,3.5,0.7s2,1.1,2.9,1.9c0.8,0.8,1.4,1.8,1.9,2.9S21,11.8,21,13s-0.2,2.4-0.7,3.5c-0.5,1.1-1.1,2-1.9,2.8
	c-0.8,0.8-1.8,1.5-2.9,1.9S13.2,22,12,22z M9.5,16v-1.5h3v-1h-3V10H14v1.5h-3v1h2c0.3,0,0.5,0.1,0.7,0.3c0.2,0.2,0.3,0.4,0.3,0.7V15
	c0,0.3-0.1,0.5-0.3,0.7C13.5,15.9,13.3,16,13,16H9.5z"/>
</svg>
